<svg xmlns="http://www.w3.org/2000/svg" xmlns:xlink="http://www.w3.org/1999/xlink" width="602" zoomAndPan="magnify" viewBox="0 0 451.5 220.499993" height="294" preserveAspectRatio="xMidYMid meet" version="1.0"><defs><g/><clipPath id="ad9c5ef4b3"><path d="M 0.261719 0 L 450.738281 0 L 450.738281 220 L 0.261719 220 Z M 0.261719 0 " clip-rule="nonzero"/></clipPath></defs><g clip-path="url(#ad9c5ef4b3)"><path fill="#ffffff" d="M 0.261719 0 L 451.238281 0 L 451.238281 226.988281 L 0.261719 226.988281 Z M 0.261719 0 " fill-opacity="1" fill-rule="nonzero"/><path fill="#ffffff" d="M 0.261719 0 L 451.238281 0 L 451.238281 220.246094 L 0.261719 220.246094 Z M 0.261719 0 " fill-opacity="1" fill-rule="nonzero"/></g><g fill="#ffffff" fill-opacity="1"><g transform="translate(75.317887, 109.797802)"><g><path d="M 1.367188 -5.84375 C 1.367188 -1.554688 4.476562 0.683594 8.121094 0.683594 C 11.992188 0.683594 16.167969 -2.199219 16.167969 -7.363281 L 16.167969 -24.894531 C 16.167969 -25.578125 16.394531 -25.808594 17.078125 -25.808594 L 19.429688 -25.808594 L 19.429688 -27.019531 L 6.601562 -27.019531 L 6.601562 -25.808594 L 9.640625 -25.808594 C 10.324219 -25.808594 10.550781 -25.578125 10.550781 -24.894531 L 10.550781 -4.933594 C 10.550781 -2.125 9.675781 -0.53125 7.667969 -0.53125 C 5.425781 -0.53125 3.945312 -1.898438 3.945312 -2.882812 C 3.945312 -3.71875 4.289062 -4.175781 5.160156 -4.476562 C 6.222656 -4.859375 7.476562 -5.769531 7.476562 -7.667969 C 7.476562 -9.03125 6.453125 -10.285156 4.78125 -10.285156 C 3.113281 -10.285156 1.367188 -8.578125 1.367188 -5.84375 Z M 1.367188 -5.84375 "/></g></g></g><g fill="#ffffff" fill-opacity="1"><g transform="translate(95.80995, 109.797802)"><g><path d="M 2.351562 -2.503906 C 2.351562 -0.796875 3.605469 0.457031 5.3125 0.457031 C 7.019531 0.457031 8.273438 -0.796875 8.273438 -2.503906 C 8.273438 -4.210938 7.019531 -5.464844 5.3125 -5.464844 C 3.605469 -5.464844 2.351562 -4.210938 2.351562 -2.503906 Z M 2.351562 -2.503906 "/></g></g></g><g fill="#ffffff" fill-opacity="1"><g transform="translate(106.435468, 109.797802)"><g><path d="M 11.539062 -15.027344 L 11.539062 -24.894531 C 11.539062 -25.578125 11.765625 -25.808594 12.449219 -25.808594 L 14.078125 -25.808594 C 16.925781 -25.808594 17.683594 -23.832031 17.683594 -20.644531 C 17.683594 -17.457031 16.925781 -15.027344 14.078125 -15.027344 Z M 2.351562 0 L 15.789062 0 L 15.789062 -1.214844 L 12.449219 -1.214844 C 11.765625 -1.214844 11.539062 -1.441406 11.539062 -2.125 L 11.539062 -13.8125 L 13.664062 -13.8125 C 16.320312 -13.8125 17.304688 -11.6875 17.304688 -9.488281 L 17.304688 -4.78125 C 17.304688 -0.910156 19.46875 0.910156 22.582031 0.910156 C 26.222656 0.910156 27.097656 -2.429688 27.097656 -6.832031 L 25.882812 -6.832031 C 25.882812 -4.136719 25.425781 -1.214844 23.984375 -1.214844 C 23.300781 -1.214844 22.921875 -1.667969 22.921875 -2.808594 L 22.921875 -7.019531 C 22.921875 -11.765625 20.339844 -13.398438 16.773438 -14.042969 L 16.773438 -14.308594 C 20.722656 -14.761719 23.757812 -16.699219 23.757812 -20.339844 C 23.757812 -24.515625 20.039062 -27.019531 14.648438 -27.019531 L 2.351562 -27.019531 L 2.351562 -25.808594 L 5.007812 -25.808594 C 5.691406 -25.808594 5.921875 -25.578125 5.921875 -24.894531 L 5.921875 -2.125 C 5.921875 -1.441406 5.691406 -1.214844 5.007812 -1.214844 L 2.351562 -1.214844 Z M 2.351562 0 "/></g></g></g><g fill="#ffffff" fill-opacity="1"><g transform="translate(134.137695, 109.797802)"><g><path d="M 2.351562 -2.503906 C 2.351562 -0.796875 3.605469 0.457031 5.3125 0.457031 C 7.019531 0.457031 8.273438 -0.796875 8.273438 -2.503906 C 8.273438 -4.210938 7.019531 -5.464844 5.3125 -5.464844 C 3.605469 -5.464844 2.351562 -4.210938 2.351562 -2.503906 Z M 2.351562 -2.503906 "/></g></g></g><g fill="#ffffff" fill-opacity="1"><g transform="translate(144.763213, 109.797802)"><g/></g></g><g fill="#ffffff" fill-opacity="1"><g transform="translate(155.388731, 109.797802)"><g><path d="M 11.539062 -15.027344 L 11.539062 -24.894531 C 11.539062 -25.578125 11.765625 -25.808594 12.449219 -25.808594 L 14.078125 -25.808594 C 16.925781 -25.808594 17.683594 -23.832031 17.683594 -20.644531 C 17.683594 -17.457031 16.925781 -15.027344 14.078125 -15.027344 Z M 2.351562 0 L 15.789062 0 L 15.789062 -1.214844 L 12.449219 -1.214844 C 11.765625 -1.214844 11.539062 -1.441406 11.539062 -2.125 L 11.539062 -13.8125 L 13.664062 -13.8125 C 16.320312 -13.8125 17.304688 -11.6875 17.304688 -9.488281 L 17.304688 -4.78125 C 17.304688 -0.910156 19.46875 0.910156 22.582031 0.910156 C 26.222656 0.910156 27.097656 -2.429688 27.097656 -6.832031 L 25.882812 -6.832031 C 25.882812 -4.136719 25.425781 -1.214844 23.984375 -1.214844 C 23.300781 -1.214844 22.921875 -1.667969 22.921875 -2.808594 L 22.921875 -7.019531 C 22.921875 -11.765625 20.339844 -13.398438 16.773438 -14.042969 L 16.773438 -14.308594 C 20.722656 -14.761719 23.757812 -16.699219 23.757812 -20.339844 C 23.757812 -24.515625 20.039062 -27.019531 14.648438 -27.019531 L 2.351562 -27.019531 L 2.351562 -25.808594 L 5.007812 -25.808594 C 5.691406 -25.808594 5.921875 -25.578125 5.921875 -24.894531 L 5.921875 -2.125 C 5.921875 -1.441406 5.691406 -1.214844 5.007812 -1.214844 L 2.351562 -1.214844 Z M 2.351562 0 "/></g></g></g><g fill="#ffffff" fill-opacity="1"><g transform="translate(183.090958, 109.797802)"><g><path d="M 1.820312 -8.996094 C 1.820312 -3.796875 5.046875 0.457031 9.90625 0.457031 C 14.230469 0.457031 15.75 -3.339844 16.015625 -6.148438 L 15.027344 -6.148438 C 14.761719 -3.566406 13.359375 -0.683594 10.664062 -0.683594 C 8.957031 -0.683594 7.550781 -1.898438 7.097656 -3.757812 C 6.679688 -5.238281 6.679688 -6.71875 6.679688 -8.652344 L 15.9375 -8.652344 C 15.9375 -9.109375 15.9375 -11.234375 15.671875 -12.449219 C 14.953125 -16.015625 12.601562 -18.445312 9.488281 -18.445312 C 5.273438 -18.445312 1.820312 -14.460938 1.820312 -8.996094 Z M 6.679688 -9.714844 C 6.679688 -14.648438 7.136719 -17.535156 9.109375 -17.535156 C 11.082031 -17.535156 11.539062 -14.648438 11.539062 -9.714844 Z M 6.679688 -9.714844 "/></g></g></g><g fill="#ffffff" fill-opacity="1"><g transform="translate(201.002541, 109.797802)"><g><path d="M 1.519531 0 L 9.792969 0 L 9.792969 -0.910156 L 8.578125 -0.910156 C 8.121094 -0.910156 7.96875 -1.0625 7.96875 -1.519531 L 7.96875 -9.640625 C 7.96875 -13.777344 10.132812 -17.230469 11.6875 -17.230469 C 13.09375 -17.230469 13.433594 -15.863281 13.433594 -14.308594 L 13.433594 -1.519531 C 13.433594 -1.0625 13.28125 -0.910156 12.828125 -0.910156 L 11.613281 -0.910156 L 11.613281 0 L 19.886719 0 L 19.886719 -0.910156 L 18.445312 -0.910156 C 17.988281 -0.910156 17.835938 -1.0625 17.835938 -1.519531 L 17.835938 -13.207031 C 17.835938 -14.875 17.078125 -16.660156 15.789062 -17.609375 C 14.992188 -18.179688 14.15625 -18.445312 12.867188 -18.445312 C 10.664062 -18.445312 9.109375 -16.773438 8.160156 -14.574219 L 7.96875 -14.609375 L 7.96875 -17.988281 L 1.519531 -17.988281 L 1.519531 -17.078125 L 2.960938 -17.078125 C 3.414062 -17.078125 3.566406 -16.925781 3.566406 -16.472656 L 3.566406 -1.519531 C 3.566406 -1.0625 3.414062 -0.910156 2.960938 -0.910156 L 1.519531 -0.910156 Z M 1.519531 0 "/></g></g></g><g fill="#ffffff" fill-opacity="1"><g transform="translate(222.101776, 109.797802)"><g><path d="M 1.519531 0 L 9.792969 0 L 9.792969 -0.910156 L 8.578125 -0.910156 C 8.121094 -0.910156 7.96875 -1.0625 7.96875 -1.519531 L 7.96875 -9.640625 C 7.96875 -13.777344 10.132812 -17.230469 11.6875 -17.230469 C 13.09375 -17.230469 13.433594 -15.863281 13.433594 -14.308594 L 13.433594 -1.519531 C 13.433594 -1.0625 13.28125 -0.910156 12.828125 -0.910156 L 11.613281 -0.910156 L 11.613281 0 L 19.886719 0 L 19.886719 -0.910156 L 18.445312 -0.910156 C 17.988281 -0.910156 17.835938 -1.0625 17.835938 -1.519531 L 17.835938 -13.207031 C 17.835938 -14.875 17.078125 -16.660156 15.789062 -17.609375 C 14.992188 -18.179688 14.15625 -18.445312 12.867188 -18.445312 C 10.664062 -18.445312 9.109375 -16.773438 8.160156 -14.574219 L 7.96875 -14.609375 L 7.96875 -17.988281 L 1.519531 -17.988281 L 1.519531 -17.078125 L 2.960938 -17.078125 C 3.414062 -17.078125 3.566406 -16.925781 3.566406 -16.472656 L 3.566406 -1.519531 C 3.566406 -1.0625 3.414062 -0.910156 2.960938 -0.910156 L 1.519531 -0.910156 Z M 1.519531 0 "/></g></g></g><g fill="#ffffff" fill-opacity="1"><g transform="translate(243.20101, 109.797802)"><g><path d="M 6.679688 -8.996094 C 6.679688 -14.761719 7.285156 -17.535156 9.5625 -17.535156 C 11.839844 -17.535156 12.449219 -14.761719 12.449219 -8.996094 C 12.449219 -3.226562 11.839844 -0.457031 9.5625 -0.457031 C 7.285156 -0.457031 6.679688 -3.226562 6.679688 -8.996094 Z M 1.820312 -8.996094 C 1.820312 -3.53125 5.464844 0.457031 9.5625 0.457031 C 13.664062 0.457031 17.304688 -3.53125 17.304688 -8.996094 C 17.304688 -14.460938 13.664062 -18.445312 9.5625 -18.445312 C 5.464844 -18.445312 1.820312 -14.460938 1.820312 -8.996094 Z M 1.820312 -8.996094 "/></g></g></g><g fill="#ffffff" fill-opacity="1"><g transform="translate(262.326938, 109.797802)"><g><path d="M 0.988281 0 L 10.855469 0 L 10.855469 -0.910156 L 8.730469 -0.910156 C 8.273438 -0.910156 8.121094 -1.0625 8.121094 -1.519531 L 8.121094 -27.019531 L 0.988281 -27.019531 L 0.988281 -26.109375 L 3.113281 -26.109375 C 3.566406 -26.109375 3.71875 -25.957031 3.71875 -25.503906 L 3.71875 -1.519531 C 3.71875 -1.0625 3.566406 -0.910156 3.113281 -0.910156 L 0.988281 -0.910156 Z M 0.988281 0 "/></g></g></g><g fill="#ffffff" fill-opacity="1"><g transform="translate(274.014987, 109.797802)"><g><path d="M 6.679688 -8.996094 C 6.679688 -13.851562 7.363281 -17.230469 9.183594 -17.230469 C 10.398438 -17.230469 12.449219 -14.800781 12.449219 -8.878906 C 12.449219 -4.328125 10.929688 -0.757812 9.183594 -0.757812 C 7.363281 -0.757812 6.679688 -4.136719 6.679688 -8.996094 Z M 1.820312 -8.996094 C 1.820312 -4.210938 4.59375 0.457031 8.652344 0.457031 C 10.4375 0.457031 11.652344 -0.988281 12.21875 -2.199219 L 12.449219 -2.199219 L 12.449219 0 L 19.582031 0 L 19.582031 -0.910156 L 17.457031 -0.910156 C 17.003906 -0.910156 16.851562 -1.0625 16.851562 -1.519531 L 16.851562 -27.019531 L 9.714844 -27.019531 L 9.714844 -26.109375 L 11.839844 -26.109375 C 12.296875 -26.109375 12.449219 -25.957031 12.449219 -25.503906 L 12.449219 -15.824219 L 12.21875 -15.75 C 11.460938 -17.304688 10.207031 -18.445312 8.5 -18.445312 C 4.441406 -18.445312 1.820312 -13.777344 1.820312 -8.996094 Z M 1.820312 -8.996094 "/></g></g></g><g fill="#ffffff" fill-opacity="1"><g transform="translate(294.43116, 109.797802)"><g><path d="M 2.199219 0.457031 L 2.882812 0.457031 L 3.148438 -0.339844 C 3.339844 -0.910156 3.871094 -1.367188 4.554688 -1.367188 C 4.933594 -1.367188 5.464844 -1.0625 5.921875 -0.757812 C 6.566406 -0.378906 8.007812 0.457031 9.867188 0.457031 C 12.75 0.457031 15.105469 -1.367188 15.105469 -4.628906 C 15.105469 -7.78125 13.359375 -9.109375 8.804688 -11.308594 C 6.640625 -12.335938 4.78125 -13.664062 4.78125 -15.445312 C 4.78125 -17.003906 5.921875 -17.535156 7.136719 -17.535156 C 8.878906 -17.535156 10.777344 -16.242188 12.183594 -13.433594 L 12.902344 -11.992188 L 13.738281 -11.992188 L 13.738281 -18.066406 L 13.054688 -18.066406 L 12.828125 -17.304688 C 12.75 -17.003906 12.601562 -16.699219 12.21875 -16.699219 C 11.953125 -16.699219 11.613281 -16.8125 11.082031 -17.152344 C 10.246094 -17.683594 8.917969 -18.445312 7.285156 -18.445312 C 4.554688 -18.445312 2.199219 -16.507812 2.199219 -13.28125 C 2.199219 -9.640625 5.84375 -7.78125 7.933594 -6.753906 C 11.6875 -4.933594 12.675781 -4.25 12.675781 -2.734375 C 12.675781 -1.746094 11.953125 -0.457031 9.90625 -0.457031 C 7.4375 -0.457031 5.84375 -2.125 4.742188 -4.0625 L 3.035156 -7.058594 L 2.199219 -7.058594 Z M 2.199219 0.457031 "/></g></g></g><g fill="#ffffff" fill-opacity="1"><g transform="translate(310.748918, 109.797802)"><g/></g></g><g fill="#ffffff" fill-opacity="1"><g transform="translate(321.374436, 109.797802)"><g><path d="M 2.65625 -13.511719 C 2.65625 -6.375 6.300781 0.683594 13.664062 0.683594 C 17.457031 0.683594 20.152344 -1.175781 21.671875 -4.136719 C 22.582031 -5.921875 23.074219 -8.347656 23.226562 -10.4375 L 21.859375 -10.4375 C 21.671875 -8.652344 21.289062 -6.375 20.378906 -4.667969 C 19.242188 -2.542969 17.230469 -0.53125 13.664062 -0.53125 C 11.539062 -0.53125 9.109375 -2.351562 9.109375 -7.816406 L 9.109375 -19.203125 C 9.109375 -24.667969 11.15625 -26.488281 13.28125 -26.488281 C 17.078125 -26.488281 20.113281 -22.238281 21.253906 -15.75 L 22.46875 -15.75 L 22.46875 -27.402344 L 21.214844 -27.402344 L 20.53125 -25.996094 C 20.339844 -25.578125 20.152344 -25.273438 19.695312 -25.273438 C 19.394531 -25.273438 18.9375 -25.503906 18.40625 -25.84375 C 16.886719 -26.871094 15.332031 -27.703125 13.28125 -27.703125 C 6.601562 -27.703125 2.65625 -21.101562 2.65625 -13.511719 Z M 2.65625 -13.511719 "/></g></g></g><g fill="#ffffff" fill-opacity="1"><g transform="translate(346.420284, 109.797802)"><g><path d="M 6.679688 -8.996094 C 6.679688 -14.761719 7.285156 -17.535156 9.5625 -17.535156 C 11.839844 -17.535156 12.449219 -14.761719 12.449219 -8.996094 C 12.449219 -3.226562 11.839844 -0.457031 9.5625 -0.457031 C 7.285156 -0.457031 6.679688 -3.226562 6.679688 -8.996094 Z M 1.820312 -8.996094 C 1.820312 -3.53125 5.464844 0.457031 9.5625 0.457031 C 13.664062 0.457031 17.304688 -3.53125 17.304688 -8.996094 C 17.304688 -14.460938 13.664062 -18.445312 9.5625 -18.445312 C 5.464844 -18.445312 1.820312 -14.460938 1.820312 -8.996094 Z M 1.820312 -8.996094 "/></g></g></g><g fill="#ffffff" fill-opacity="1"><g transform="translate(365.546212, 109.797802)"><g><path d="M 2.351562 -2.503906 C 2.351562 -0.796875 3.605469 0.457031 5.3125 0.457031 C 7.019531 0.457031 8.273438 -0.796875 8.273438 -2.503906 C 8.273438 -4.210938 7.019531 -5.464844 5.3125 -5.464844 C 3.605469 -5.464844 2.351562 -4.210938 2.351562 -2.503906 Z M 2.351562 -2.503906 "/></g></g></g><g fill="#ffffff" fill-opacity="1"><g transform="translate(122.850697, 139.11495)"><g><path d="M 1.300781 0 L 13.246094 0 L 13.371094 -5.785156 L 12.703125 -5.785156 C 12.703125 -5.785156 12.535156 -4.421875 12.261719 -3.648438 C 11.863281 -2.515625 10.878906 -0.671875 9.160156 -0.671875 L 6.875 -0.671875 C 6.496094 -0.671875 6.371094 -0.796875 6.371094 -1.171875 L 6.371094 -7.210938 L 7.441406 -7.210938 C 8.613281 -7.210938 9.539062 -5.535156 9.539062 -4.296875 L 10.207031 -4.296875 L 10.207031 -10.859375 L 9.539062 -10.859375 C 9.539062 -9.640625 8.613281 -7.964844 7.441406 -7.964844 L 6.371094 -7.964844 L 6.371094 -13.75 C 6.371094 -14.128906 6.496094 -14.253906 6.875 -14.253906 L 9.179688 -14.253906 C 10.269531 -14.253906 11.109375 -13.476562 11.695312 -12.449219 C 12.324219 -11.402344 12.535156 -10.0625 12.535156 -10.0625 L 13.207031 -10.0625 L 13.078125 -14.925781 L 1.300781 -14.925781 L 1.300781 -14.253906 L 2.765625 -14.253906 C 3.144531 -14.253906 3.269531 -14.128906 3.269531 -13.75 L 3.269531 -1.171875 C 3.269531 -0.796875 3.144531 -0.671875 2.765625 -0.671875 L 1.300781 -0.671875 Z M 1.300781 0 "/></g></g></g><g fill="#ffffff" fill-opacity="1"><g transform="translate(137.307719, 139.11495)"><g><path d="M 0.546875 0 L 5.996094 0 L 5.996094 -0.503906 L 4.820312 -0.503906 C 4.570312 -0.503906 4.484375 -0.585938 4.484375 -0.839844 L 4.484375 -14.925781 L 0.546875 -14.925781 L 0.546875 -14.421875 L 1.71875 -14.421875 C 1.96875 -14.421875 2.054688 -14.335938 2.054688 -14.085938 L 2.054688 -0.839844 C 2.054688 -0.585938 1.96875 -0.503906 1.71875 -0.503906 L 0.546875 -0.503906 Z M 0.546875 0 "/></g></g></g><g fill="#ffffff" fill-opacity="1"><g transform="translate(143.761002, 139.11495)"><g><path d="M 1.007812 -4.96875 C 1.007812 -2.097656 2.789062 0.25 5.472656 0.25 C 7.859375 0.25 8.699219 -1.84375 8.84375 -3.394531 L 8.300781 -3.394531 C 8.152344 -1.96875 7.378906 -0.378906 5.890625 -0.378906 C 4.945312 -0.378906 4.171875 -1.046875 3.917969 -2.074219 C 3.6875 -2.890625 3.6875 -3.710938 3.6875 -4.777344 L 8.804688 -4.777344 C 8.804688 -5.03125 8.804688 -6.203125 8.65625 -6.875 C 8.257812 -8.84375 6.957031 -10.1875 5.238281 -10.1875 C 2.914062 -10.1875 1.007812 -7.984375 1.007812 -4.96875 Z M 3.6875 -5.367188 C 3.6875 -8.089844 3.941406 -9.683594 5.03125 -9.683594 C 6.121094 -9.683594 6.371094 -8.089844 6.371094 -5.367188 Z M 3.6875 -5.367188 "/></g></g></g><g fill="#ffffff" fill-opacity="1"><g transform="translate(153.650442, 139.11495)"><g><path d="M 1.007812 -4.96875 C 1.007812 -2.097656 2.789062 0.25 5.472656 0.25 C 7.859375 0.25 8.699219 -1.84375 8.84375 -3.394531 L 8.300781 -3.394531 C 8.152344 -1.96875 7.378906 -0.378906 5.890625 -0.378906 C 4.945312 -0.378906 4.171875 -1.046875 3.917969 -2.074219 C 3.6875 -2.890625 3.6875 -3.792969 3.6875 -4.96875 C 3.6875 -7.753906 4.214844 -9.683594 5.597656 -9.683594 C 6.664062 -9.683594 6.957031 -8.972656 6.957031 -8.511719 C 6.957031 -8.152344 6.707031 -7.859375 6.457031 -7.652344 C 6.246094 -7.484375 5.785156 -7.105469 5.785156 -6.539062 C 5.785156 -5.867188 6.289062 -5.492188 6.894531 -5.492188 C 7.753906 -5.492188 8.46875 -6.351562 8.46875 -7.355469 C 8.46875 -8.65625 7.546875 -10.1875 5.429688 -10.1875 C 2.789062 -10.1875 1.007812 -7.839844 1.007812 -4.96875 Z M 1.007812 -4.96875 "/></g></g></g><g fill="#ffffff" fill-opacity="1"><g transform="translate(163.456072, 139.11495)"><g><path d="M 0.417969 -9.347656 L 1.675781 -9.347656 L 1.675781 -2.347656 C 1.675781 -0.710938 2.683594 0.25 4.445312 0.25 C 5.367188 0.25 6.058594 -0.148438 6.476562 -0.816406 C 6.957031 -1.59375 7.125 -3.144531 7.125 -4.570312 L 6.539062 -4.570312 C 6.539062 -3.3125 6.433594 -0.671875 5.074219 -0.671875 C 4.214844 -0.671875 4.109375 -1.488281 4.109375 -2.199219 L 4.109375 -9.347656 L 6.246094 -9.347656 L 6.246094 -9.933594 L 4.109375 -9.933594 L 4.109375 -13.960938 L 3.101562 -13.960938 L 3.101562 -13.207031 C 3.101562 -11.320312 2.03125 -10.144531 0.417969 -9.933594 Z M 0.417969 -9.347656 "/></g></g></g><g fill="#ffffff" fill-opacity="1"><g transform="translate(171.082673, 139.11495)"><g><path d="M 0.839844 0 L 5.40625 0 L 5.40625 -0.503906 L 4.738281 -0.503906 C 4.484375 -0.503906 4.402344 -0.585938 4.402344 -0.839844 L 4.402344 -5.050781 C 4.402344 -7.335938 5.367188 -9.347656 6.226562 -9.347656 C 6.394531 -9.347656 6.457031 -9.242188 6.457031 -9.140625 C 6.457031 -8.992188 6.308594 -8.824219 6.164062 -8.65625 C 5.910156 -8.363281 5.660156 -7.984375 5.660156 -7.566406 C 5.660156 -6.894531 6.265625 -6.371094 7.023438 -6.371094 C 7.902344 -6.371094 8.550781 -7.253906 8.550781 -8.257812 C 8.550781 -9.347656 7.859375 -10.1875 6.832031 -10.1875 C 5.765625 -10.1875 4.90625 -9.011719 4.507812 -7.839844 L 4.402344 -7.859375 L 4.402344 -9.933594 L 0.839844 -9.933594 L 0.839844 -9.433594 L 1.636719 -9.433594 C 1.886719 -9.433594 1.96875 -9.347656 1.96875 -9.097656 L 1.96875 -0.839844 C 1.96875 -0.585938 1.886719 -0.503906 1.636719 -0.503906 L 0.839844 -0.503906 Z M 0.839844 0 "/></g></g></g><g fill="#ffffff" fill-opacity="1"><g transform="translate(180.175933, 139.11495)"><g><path d="M 1.636719 -13.625 C 1.636719 -12.742188 2.304688 -12.074219 3.1875 -12.074219 C 4.066406 -12.074219 4.738281 -12.742188 4.738281 -13.625 C 4.738281 -14.503906 4.066406 -15.175781 3.1875 -15.175781 C 2.304688 -15.175781 1.636719 -14.503906 1.636719 -13.625 Z M 0.839844 0 L 5.535156 0 L 5.535156 -0.503906 L 4.738281 -0.503906 C 4.484375 -0.503906 4.402344 -0.585938 4.402344 -0.839844 L 4.402344 -9.933594 L 0.839844 -9.933594 L 0.839844 -9.433594 L 1.636719 -9.433594 C 1.886719 -9.433594 1.96875 -9.347656 1.96875 -9.097656 L 1.96875 -0.839844 C 1.96875 -0.585938 1.886719 -0.503906 1.636719 -0.503906 L 0.839844 -0.503906 Z M 0.839844 0 "/></g></g></g><g fill="#ffffff" fill-opacity="1"><g transform="translate(186.377783, 139.11495)"><g><path d="M 1.007812 -4.96875 C 1.007812 -2.097656 2.789062 0.25 5.472656 0.25 C 7.859375 0.25 8.699219 -1.84375 8.84375 -3.394531 L 8.300781 -3.394531 C 8.152344 -1.96875 7.378906 -0.378906 5.890625 -0.378906 C 4.945312 -0.378906 4.171875 -1.046875 3.917969 -2.074219 C 3.6875 -2.890625 3.6875 -3.792969 3.6875 -4.96875 C 3.6875 -7.753906 4.214844 -9.683594 5.597656 -9.683594 C 6.664062 -9.683594 6.957031 -8.972656 6.957031 -8.511719 C 6.957031 -8.152344 6.707031 -7.859375 6.457031 -7.652344 C 6.246094 -7.484375 5.785156 -7.105469 5.785156 -6.539062 C 5.785156 -5.867188 6.289062 -5.492188 6.894531 -5.492188 C 7.753906 -5.492188 8.46875 -6.351562 8.46875 -7.355469 C 8.46875 -8.65625 7.546875 -10.1875 5.429688 -10.1875 C 2.789062 -10.1875 1.007812 -7.839844 1.007812 -4.96875 Z M 1.007812 -4.96875 "/></g></g></g><g fill="#ffffff" fill-opacity="1"><g transform="translate(196.183412, 139.11495)"><g><path d="M 3.519531 -2.410156 C 3.519531 -3.960938 3.917969 -4.90625 4.863281 -5.238281 L 6.035156 -5.660156 L 6.035156 -1.507812 C 5.742188 -0.921875 5.304688 -0.585938 4.757812 -0.585938 C 4.296875 -0.585938 3.519531 -0.859375 3.519531 -2.410156 Z M 0.964844 -2.222656 C 0.964844 -0.273438 2.429688 0.25 3.730469 0.25 C 4.863281 0.25 5.617188 -0.25 6.078125 -0.878906 L 6.121094 -0.878906 C 6.496094 -0.125 6.957031 0.25 8.152344 0.25 C 8.910156 0.25 9.472656 -0.125 9.769531 -0.585938 C 10.164062 -1.195312 10.230469 -2.074219 10.230469 -2.828125 L 9.640625 -2.828125 C 9.640625 -1.886719 9.433594 -0.753906 8.886719 -0.753906 C 8.613281 -0.753906 8.46875 -0.984375 8.46875 -1.507812 L 8.46875 -6.8125 C 8.46875 -9.371094 6.414062 -10.1875 4.695312 -10.1875 C 3.207031 -10.1875 1.445312 -9.203125 1.445312 -7.503906 C 1.445312 -6.519531 2.117188 -6.078125 2.765625 -6.078125 C 3.289062 -6.078125 3.941406 -6.414062 3.941406 -7.148438 C 3.941406 -7.628906 3.730469 -7.859375 3.355469 -8.089844 C 3.082031 -8.28125 3.019531 -8.574219 3.019531 -8.699219 C 3.019531 -9.347656 3.753906 -9.683594 4.464844 -9.683594 C 5.28125 -9.683594 6.035156 -9.179688 6.035156 -7.652344 L 6.035156 -6.226562 L 4.484375 -5.679688 C 2.976562 -5.15625 0.964844 -4.277344 0.964844 -2.222656 Z M 0.964844 -2.222656 "/></g></g></g><g fill="#ffffff" fill-opacity="1"><g transform="translate(206.827128, 139.11495)"><g><path d="M 0.546875 0 L 5.996094 0 L 5.996094 -0.503906 L 4.820312 -0.503906 C 4.570312 -0.503906 4.484375 -0.585938 4.484375 -0.839844 L 4.484375 -14.925781 L 0.546875 -14.925781 L 0.546875 -14.421875 L 1.71875 -14.421875 C 1.96875 -14.421875 2.054688 -14.335938 2.054688 -14.085938 L 2.054688 -0.839844 C 2.054688 -0.585938 1.96875 -0.503906 1.71875 -0.503906 L 0.546875 -0.503906 Z M 0.546875 0 "/></g></g></g><g fill="#ffffff" fill-opacity="1"><g transform="translate(213.280411, 139.11495)"><g/></g></g><g fill="#ffffff" fill-opacity="1"><g transform="translate(219.147028, 139.11495)"><g><path d="M 1.46875 -7.460938 C 1.46875 -3.519531 3.480469 0.378906 7.546875 0.378906 C 9.640625 0.378906 11.128906 -0.648438 11.96875 -2.285156 C 12.472656 -3.269531 12.742188 -4.613281 12.828125 -5.765625 L 12.074219 -5.765625 C 11.96875 -4.777344 11.757812 -3.519531 11.257812 -2.578125 C 10.628906 -1.40625 9.515625 -0.292969 7.546875 -0.292969 C 6.371094 -0.292969 5.03125 -1.300781 5.03125 -4.316406 L 5.03125 -10.605469 C 5.03125 -13.625 6.164062 -14.628906 7.335938 -14.628906 C 9.433594 -14.628906 11.109375 -12.28125 11.738281 -8.699219 L 12.410156 -8.699219 L 12.410156 -15.132812 L 11.71875 -15.132812 L 11.339844 -14.359375 C 11.234375 -14.128906 11.128906 -13.960938 10.878906 -13.960938 C 10.710938 -13.960938 10.460938 -14.085938 10.164062 -14.273438 C 9.328125 -14.839844 8.46875 -15.300781 7.335938 -15.300781 C 3.648438 -15.300781 1.46875 -11.652344 1.46875 -7.460938 Z M 1.46875 -7.460938 "/></g></g></g><g fill="#ffffff" fill-opacity="1"><g transform="translate(232.97548, 139.11495)"><g><path d="M 3.6875 -4.96875 C 3.6875 -8.152344 4.023438 -9.683594 5.28125 -9.683594 C 6.539062 -9.683594 6.875 -8.152344 6.875 -4.96875 C 6.875 -1.78125 6.539062 -0.25 5.28125 -0.25 C 4.023438 -0.25 3.6875 -1.78125 3.6875 -4.96875 Z M 1.007812 -4.96875 C 1.007812 -1.949219 3.019531 0.25 5.28125 0.25 C 7.546875 0.25 9.558594 -1.949219 9.558594 -4.96875 C 9.558594 -7.984375 7.546875 -10.1875 5.28125 -10.1875 C 3.019531 -10.1875 1.007812 -7.984375 1.007812 -4.96875 Z M 1.007812 -4.96875 "/></g></g></g><g fill="#ffffff" fill-opacity="1"><g transform="translate(243.535385, 139.11495)"><g><path d="M 0.839844 0 L 5.40625 0 L 5.40625 -0.503906 L 4.738281 -0.503906 C 4.484375 -0.503906 4.402344 -0.585938 4.402344 -0.839844 L 4.402344 -5.324219 C 4.402344 -7.609375 5.597656 -9.515625 6.457031 -9.515625 C 7.230469 -9.515625 7.421875 -8.761719 7.421875 -7.902344 L 7.421875 -0.839844 C 7.421875 -0.585938 7.335938 -0.503906 7.085938 -0.503906 L 6.414062 -0.503906 L 6.414062 0 L 10.984375 0 L 10.984375 -0.503906 L 10.1875 -0.503906 C 9.933594 -0.503906 9.851562 -0.585938 9.851562 -0.839844 L 9.851562 -7.292969 C 9.851562 -8.214844 9.433594 -9.203125 8.71875 -9.726562 C 8.28125 -10.039062 7.816406 -10.1875 7.105469 -10.1875 C 5.890625 -10.1875 5.03125 -9.265625 4.507812 -8.050781 L 4.402344 -8.070312 L 4.402344 -9.933594 L 0.839844 -9.933594 L 0.839844 -9.433594 L 1.636719 -9.433594 C 1.886719 -9.433594 1.96875 -9.347656 1.96875 -9.097656 L 1.96875 -0.839844 C 1.96875 -0.585938 1.886719 -0.503906 1.636719 -0.503906 L 0.839844 -0.503906 Z M 0.839844 0 "/></g></g></g><g fill="#ffffff" fill-opacity="1"><g transform="translate(255.184809, 139.11495)"><g><path d="M 0.417969 -9.347656 L 1.675781 -9.347656 L 1.675781 -2.347656 C 1.675781 -0.710938 2.683594 0.25 4.445312 0.25 C 5.367188 0.25 6.058594 -0.148438 6.476562 -0.816406 C 6.957031 -1.59375 7.125 -3.144531 7.125 -4.570312 L 6.539062 -4.570312 C 6.539062 -3.3125 6.433594 -0.671875 5.074219 -0.671875 C 4.214844 -0.671875 4.109375 -1.488281 4.109375 -2.199219 L 4.109375 -9.347656 L 6.246094 -9.347656 L 6.246094 -9.933594 L 4.109375 -9.933594 L 4.109375 -13.960938 L 3.101562 -13.960938 L 3.101562 -13.207031 C 3.101562 -11.320312 2.03125 -10.144531 0.417969 -9.933594 Z M 0.417969 -9.347656 "/></g></g></g><g fill="#ffffff" fill-opacity="1"><g transform="translate(262.811411, 139.11495)"><g><path d="M 0.839844 0 L 5.40625 0 L 5.40625 -0.503906 L 4.738281 -0.503906 C 4.484375 -0.503906 4.402344 -0.585938 4.402344 -0.839844 L 4.402344 -5.050781 C 4.402344 -7.335938 5.367188 -9.347656 6.226562 -9.347656 C 6.394531 -9.347656 6.457031 -9.242188 6.457031 -9.140625 C 6.457031 -8.992188 6.308594 -8.824219 6.164062 -8.65625 C 5.910156 -8.363281 5.660156 -7.984375 5.660156 -7.566406 C 5.660156 -6.894531 6.265625 -6.371094 7.023438 -6.371094 C 7.902344 -6.371094 8.550781 -7.253906 8.550781 -8.257812 C 8.550781 -9.347656 7.859375 -10.1875 6.832031 -10.1875 C 5.765625 -10.1875 4.90625 -9.011719 4.507812 -7.839844 L 4.402344 -7.859375 L 4.402344 -9.933594 L 0.839844 -9.933594 L 0.839844 -9.433594 L 1.636719 -9.433594 C 1.886719 -9.433594 1.96875 -9.347656 1.96875 -9.097656 L 1.96875 -0.839844 C 1.96875 -0.585938 1.886719 -0.503906 1.636719 -0.503906 L 0.839844 -0.503906 Z M 0.839844 0 "/></g></g></g><g fill="#ffffff" fill-opacity="1"><g transform="translate(271.90467, 139.11495)"><g><path d="M 3.519531 -2.410156 C 3.519531 -3.960938 3.917969 -4.90625 4.863281 -5.238281 L 6.035156 -5.660156 L 6.035156 -1.507812 C 5.742188 -0.921875 5.304688 -0.585938 4.757812 -0.585938 C 4.296875 -0.585938 3.519531 -0.859375 3.519531 -2.410156 Z M 0.964844 -2.222656 C 0.964844 -0.273438 2.429688 0.25 3.730469 0.25 C 4.863281 0.25 5.617188 -0.25 6.078125 -0.878906 L 6.121094 -0.878906 C 6.496094 -0.125 6.957031 0.25 8.152344 0.25 C 8.910156 0.25 9.472656 -0.125 9.769531 -0.585938 C 10.164062 -1.195312 10.230469 -2.074219 10.230469 -2.828125 L 9.640625 -2.828125 C 9.640625 -1.886719 9.433594 -0.753906 8.886719 -0.753906 C 8.613281 -0.753906 8.46875 -0.984375 8.46875 -1.507812 L 8.46875 -6.8125 C 8.46875 -9.371094 6.414062 -10.1875 4.695312 -10.1875 C 3.207031 -10.1875 1.445312 -9.203125 1.445312 -7.503906 C 1.445312 -6.519531 2.117188 -6.078125 2.765625 -6.078125 C 3.289062 -6.078125 3.941406 -6.414062 3.941406 -7.148438 C 3.941406 -7.628906 3.730469 -7.859375 3.355469 -8.089844 C 3.082031 -8.28125 3.019531 -8.574219 3.019531 -8.699219 C 3.019531 -9.347656 3.753906 -9.683594 4.464844 -9.683594 C 5.28125 -9.683594 6.035156 -9.179688 6.035156 -7.652344 L 6.035156 -6.226562 L 4.484375 -5.679688 C 2.976562 -5.15625 0.964844 -4.277344 0.964844 -2.222656 Z M 0.964844 -2.222656 "/></g></g></g><g fill="#ffffff" fill-opacity="1"><g transform="translate(282.548386, 139.11495)"><g><path d="M 1.007812 -4.96875 C 1.007812 -2.097656 2.789062 0.25 5.472656 0.25 C 7.859375 0.25 8.699219 -1.84375 8.84375 -3.394531 L 8.300781 -3.394531 C 8.152344 -1.96875 7.378906 -0.378906 5.890625 -0.378906 C 4.945312 -0.378906 4.171875 -1.046875 3.917969 -2.074219 C 3.6875 -2.890625 3.6875 -3.792969 3.6875 -4.96875 C 3.6875 -7.753906 4.214844 -9.683594 5.597656 -9.683594 C 6.664062 -9.683594 6.957031 -8.972656 6.957031 -8.511719 C 6.957031 -8.152344 6.707031 -7.859375 6.457031 -7.652344 C 6.246094 -7.484375 5.785156 -7.105469 5.785156 -6.539062 C 5.785156 -5.867188 6.289062 -5.492188 6.894531 -5.492188 C 7.753906 -5.492188 8.46875 -6.351562 8.46875 -7.355469 C 8.46875 -8.65625 7.546875 -10.1875 5.429688 -10.1875 C 2.789062 -10.1875 1.007812 -7.839844 1.007812 -4.96875 Z M 1.007812 -4.96875 "/></g></g></g><g fill="#ffffff" fill-opacity="1"><g transform="translate(292.354016, 139.11495)"><g><path d="M 0.417969 -9.347656 L 1.675781 -9.347656 L 1.675781 -2.347656 C 1.675781 -0.710938 2.683594 0.25 4.445312 0.25 C 5.367188 0.25 6.058594 -0.148438 6.476562 -0.816406 C 6.957031 -1.59375 7.125 -3.144531 7.125 -4.570312 L 6.539062 -4.570312 C 6.539062 -3.3125 6.433594 -0.671875 5.074219 -0.671875 C 4.214844 -0.671875 4.109375 -1.488281 4.109375 -2.199219 L 4.109375 -9.347656 L 6.246094 -9.347656 L 6.246094 -9.933594 L 4.109375 -9.933594 L 4.109375 -13.960938 L 3.101562 -13.960938 L 3.101562 -13.207031 C 3.101562 -11.320312 2.03125 -10.144531 0.417969 -9.933594 Z M 0.417969 -9.347656 "/></g></g></g><g fill="#ffffff" fill-opacity="1"><g transform="translate(299.980617, 139.11495)"><g><path d="M 3.6875 -4.96875 C 3.6875 -8.152344 4.023438 -9.683594 5.28125 -9.683594 C 6.539062 -9.683594 6.875 -8.152344 6.875 -4.96875 C 6.875 -1.78125 6.539062 -0.25 5.28125 -0.25 C 4.023438 -0.25 3.6875 -1.78125 3.6875 -4.96875 Z M 1.007812 -4.96875 C 1.007812 -1.949219 3.019531 0.25 5.28125 0.25 C 7.546875 0.25 9.558594 -1.949219 9.558594 -4.96875 C 9.558594 -7.984375 7.546875 -10.1875 5.28125 -10.1875 C 3.019531 -10.1875 1.007812 -7.984375 1.007812 -4.96875 Z M 1.007812 -4.96875 "/></g></g></g><g fill="#ffffff" fill-opacity="1"><g transform="translate(310.540522, 139.11495)"><g><path d="M 0.839844 0 L 5.40625 0 L 5.40625 -0.503906 L 4.738281 -0.503906 C 4.484375 -0.503906 4.402344 -0.585938 4.402344 -0.839844 L 4.402344 -5.050781 C 4.402344 -7.335938 5.367188 -9.347656 6.226562 -9.347656 C 6.394531 -9.347656 6.457031 -9.242188 6.457031 -9.140625 C 6.457031 -8.992188 6.308594 -8.824219 6.164062 -8.65625 C 5.910156 -8.363281 5.660156 -7.984375 5.660156 -7.566406 C 5.660156 -6.894531 6.265625 -6.371094 7.023438 -6.371094 C 7.902344 -6.371094 8.550781 -7.253906 8.550781 -8.257812 C 8.550781 -9.347656 7.859375 -10.1875 6.832031 -10.1875 C 5.765625 -10.1875 4.90625 -9.011719 4.507812 -7.839844 L 4.402344 -7.859375 L 4.402344 -9.933594 L 0.839844 -9.933594 L 0.839844 -9.433594 L 1.636719 -9.433594 C 1.886719 -9.433594 1.96875 -9.347656 1.96875 -9.097656 L 1.96875 -0.839844 C 1.96875 -0.585938 1.886719 -0.503906 1.636719 -0.503906 L 0.839844 -0.503906 Z M 0.839844 0 "/></g></g></g><g fill="#ffffff" fill-opacity="1"><g transform="translate(319.63377, 139.11495)"><g><path d="M 1.214844 0.25 L 1.59375 0.25 L 1.738281 -0.1875 C 1.84375 -0.503906 2.136719 -0.753906 2.515625 -0.753906 C 2.726562 -0.753906 3.019531 -0.585938 3.269531 -0.417969 C 3.625 -0.210938 4.421875 0.25 5.449219 0.25 C 7.042969 0.25 8.34375 -0.753906 8.34375 -2.558594 C 8.34375 -4.296875 7.378906 -5.03125 4.863281 -6.246094 C 3.667969 -6.8125 2.640625 -7.546875 2.640625 -8.53125 C 2.640625 -9.390625 3.269531 -9.683594 3.941406 -9.683594 C 4.90625 -9.683594 5.953125 -8.972656 6.726562 -7.421875 L 7.125 -6.625 L 7.585938 -6.625 L 7.585938 -9.976562 L 7.210938 -9.976562 L 7.085938 -9.558594 C 7.042969 -9.390625 6.957031 -9.222656 6.75 -9.222656 C 6.601562 -9.222656 6.414062 -9.285156 6.121094 -9.472656 C 5.660156 -9.769531 4.925781 -10.1875 4.023438 -10.1875 C 2.515625 -10.1875 1.214844 -9.117188 1.214844 -7.335938 C 1.214844 -5.324219 3.226562 -4.296875 4.378906 -3.730469 C 6.457031 -2.726562 7 -2.347656 7 -1.507812 C 7 -0.964844 6.601562 -0.25 5.472656 -0.25 C 4.109375 -0.25 3.226562 -1.171875 2.621094 -2.242188 L 1.675781 -3.898438 L 1.214844 -3.898438 Z M 1.214844 0.25 "/></g></g></g></svg>